HIERARCHY
ROOT root     
{
	OFFSET 0.0000 0.0000 0.0000
	CHANNELS 6 Xposition Yposition Zposition Zrotation Yrotation Xrotation
	JOINT pelvis   
	{
		OFFSET 0.0000 0.0000 0.0000
		CHANNELS 3 Zrotation Yrotation Xrotation
		JOINT thorax   
		{
			OFFSET 0.0000 23.0750 -5.0000
			CHANNELS 3 Zrotation Yrotation Xrotation
			JOINT rclavicle
			{
				OFFSET 0.0000 28.0009 0.0000
				CHANNELS 3 Zrotation Yrotation Xrotation
				JOINT rhumerus 
				{
					OFFSET -18.5725 5.5939 0.0000
					CHANNELS 3 Zrotation Yrotation Xrotation
					JOINT rradius  
					{
						OFFSET -24.8459 0.0000 0.0000
						CHANNELS 3 Zrotation Yrotation Xrotation
						JOINT rhand    
						{
							OFFSET -24.5477 0.0000 0.0000
							CHANNELS 3 Zrotation Yrotation Xrotation
							End Site
							{
								OFFSET -8.1826 0.0000 0.0000
							}
						}
					}
				}
			}
			JOINT lclavicle
			{
				OFFSET 0.0000 28.0009 0.0000
				CHANNELS 3 Zrotation Yrotation Xrotation
				JOINT lhumerus 
				{
					OFFSET 18.5725 5.5939 0.0000
					CHANNELS 3 Zrotation Yrotation Xrotation
					JOINT lradius  
					{
						OFFSET 24.8459 0.0000 0.0000
						CHANNELS 3 Zrotation Yrotation Xrotation
						JOINT lhand    
						{
							OFFSET 24.5477 0.0000 0.0000
							CHANNELS 3 Zrotation Yrotation Xrotation
							End Site
							{
								OFFSET 8.1826 0.0000 0.0000
							}
						}
					}
				}
			}
			JOINT head     
			{
				OFFSET 0.0000 35.2030 0.0000
				CHANNELS 3 Zrotation Yrotation Xrotation
				End Site
				{
					OFFSET 0.0000 11.7343 0.0000
				}
			}
		}
		JOINT rfemur   
		{
			OFFSET -8.2817 0.0000 0.0000
			CHANNELS 3 Zrotation Yrotation Xrotation
			JOINT rtibia   
			{
				OFFSET 0.0000 -43.3627 0.0000
				CHANNELS 3 Zrotation Yrotation Xrotation
				JOINT rfoot    
				{
					OFFSET 0.0000 -38.2947 0.0000
					CHANNELS 3 Zrotation Yrotation Xrotation
					JOINT rtoes    
					{
						OFFSET 0.0000 0.0000 16.6054
						CHANNELS 3 Zrotation Yrotation Xrotation
						End Site
						{
							OFFSET 0.0000 0.0000 5.5351
						}
					}
				}
			}
		}
		JOINT lfemur   
		{
			OFFSET 8.2817 0.0000 0.0000
			CHANNELS 3 Zrotation Yrotation Xrotation
			JOINT ltibia   
			{
				OFFSET 0.0000 -43.3627 0.0000
				CHANNELS 3 Zrotation Yrotation Xrotation
				JOINT lfoot    
				{
					OFFSET 0.0000 -38.2947 0.0000
					CHANNELS 3 Zrotation Yrotation Xrotation
					JOINT ltoes    
					{
						OFFSET 0.0000 0.0000 16.6054
						CHANNELS 3 Zrotation Yrotation Xrotation
						End Site
						{
							OFFSET 0.0000 0.0000 5.5351
						}
					}
				}
			}
		}
	}
}
MOTION
Frames: 15
Frame Time: .0333333
104.77 87.495 17.984 113.042 -84.8581 -87.2252 0 -0 0 -4.18249 -1.481 -10.1115 23.5619 -4.95976 4.99469e-06 46.9116 18.9025 22.3148 -7.13369e-07 63.54 -1.1519e-06 5.03681 3.92655 0.172798 -26.2733 10.2687 -8.28254e-06 -27.1193 -6.73406 -19.3685 9.58685e-08 -17.429 -6.25452e-07 8.58761 2.9982 0.225205 -21.0995 2.95076 -14.6728 -2.00305 0.451603 -5.15357 -0 -0 12.3411 -3.04524e-05 5.24816 18.8031 1.69587 -8.17107e-06 -63.8539 -7.99308 5.04178 -39.8024 -0 -0 40.6556 -1.12925e-05 15.6775 -5.2933 -1.48318 2.20646e-05 -37.0758 
103.63 87.479 17.913 112.831 -84.7411 -86.7104 0 -0 0 -4.87054 -1.2498 -10.2317 23.5906 -5.0003 9.17081e-06 46.5143 18.9927 23.1079 -8.56639e-07 65.1703 -5.47546e-07 5.41899 4.07266 0.192799 -26.0061 10.3675 -8.14301e-07 -26.901 -6.45966 -20.039 0 -17.1079 0 9.28319 3.09895 0.251703 -20.2271 2.82975 -14.8614 -2.17677 0.251793 -4.98756 -0 -0 12.5199 -1.02559e-05 5.72917 19.9917 1.96451 -1.87758e-06 -65.594 -8.56438 4.71627 -40.9943 -0 -0 39.5832 -3.7046e-05 14.6453 -5.85744 -1.52762 -8.22263e-06 -39.3069 
102.47 87.443 17.844 112.724 -84.6339 -86.3213 0 -0 0 -5.57145 -1.0135 -10.351 23.6282 -5.04907 1.03158e-05 46.1396 19.0308 23.7395 -0 66.8092 -0 5.7691 4.23376 0.213403 -25.7292 10.4584 -2.35247e-05 -26.7196 -6.13744 -20.4985 9.30996e-08 -16.9641 -6.24279e-07 9.95974 3.18636 0.277699 -19.2869 2.66135 -15.028 -2.35899 0.0229948 -4.84037 -0 -0 12.7841 -2.10019e-05 6.23973 21.144 2.25859 -3.04264e-05 -67.5304 -9.17604 4.44875 -42.0677 -0 -0 38.2838 2.68442e-06 13.4871 -6.26162 -1.49848 -3.80444e-07 -41.876 
101.27 87.382 17.773 112.766 -84.532 -86.1181 0 -0 0 -6.27319 -0.767104 -10.4491 23.672 -5.10937 -1.51952e-05 45.7859 19.0207 24.2158 -9.60905e-07 68.4472 -6.53623e-07 6.09217 4.40078 0.234303 -25.4443 10.5444 -8.63812e-05 -26.583 -5.77567 -20.7503 0 -16.9966 0 10.5937 3.27326 0.303503 -18.2809 2.45591 -15.1846 -2.54251 -0.224602 -4.68721 -0 -0 13.1241 5.42264e-05 6.81771 22.2668 2.59388 6.91789e-06 -69.6236 -9.809 4.2362 -42.989 -0 -0 36.7734 3.62967e-05 12.2399 -6.46904 -1.40017 1.24316e-05 -44.5193 
100.04 87.29 17.698 112.978 -84.4581 -86.1413 0 -0 0 -6.95755 -0.506107 -10.5074 23.72 -5.18397 -2.68229e-05 45.4501 18.9724 24.5508 -1.01749e-06 70.0811 -1.45092e-06 6.39256 4.56537 0.255103 -25.1543 10.6312 -1.25487e-05 -26.4947 -5.38575 -20.8129 0 -17.204 0 11.166 3.36845 0.329395 -17.2131 2.22612 -15.3389 -2.71627 -0.475998 -4.50341 -0 -0 13.5383 -6.24875e-05 7.50413 23.3612 2.99004 2.16177e-05 -71.7775 -10.4347 4.07581 -43.7351 -0 -0 35.1024 3.01257e-06 10.9468 -6.45332 -1.24529 -3.97277e-06 -46.965 
98.764 87.16 17.617 113.382 -84.4158 -86.4277 0 -0 0 -7.60704 -0.227594 -10.5115 23.7678 -5.27047 5.46315e-06 45.1247 18.8916 24.7516 -0 71.71 -0 6.6759 4.7192 0.2754 -24.859 10.7112 3.22229e-05 -26.4686 -4.95718 -20.7103 0 -17.5924 0 11.6617 3.48024 0.35551 -16.0912 1.98392 -15.5031 -2.87002 -0.7216 -4.27083 -0 -0 14.0314 -1.91518e-05 8.34281 24.4291 3.4706 -1.12414e-05 -73.8568 -11.0216 3.96448 -44.2946 -0 -0 33.3496 -8.51195e-07 9.65272 -6.19809 -1.05201 -4.91414e-06 -49.0639 
97.452 86.988 17.529 113.969 -84.4098 -86.9791 0 -0 0 -8.20485 0.0660021 -10.4534 23.8163 -5.36852 -4.75858e-06 44.8017 18.7858 24.8293 -0 73.3274 -0 6.94616 4.85706 0.295 -24.5626 10.786 -1.07367e-05 -26.5059 -4.49429 -20.4728 0 -18.1572 0 12.0724 3.60962 0.381809 -14.9236 1.74288 -15.6811 -2.99456 -0.954901 -3.98191 -0 -0 14.6122 -4.66886e-06 9.36776 25.4658 4.05727 -3.30413e-05 -75.7084 -11.5391 3.8992 -44.6758 -0 -0 31.6258 6.37026e-06 8.39963 -5.71882 -0.842991 -3.02705e-06 -50.7127 
96.103 86.771 17.433 114.665 -84.4566 -87.7186 0 -0 0 -8.73792 0.366412 -10.3342 23.8671 -5.47311 7.06937e-07 44.4698 18.6596 24.792 -0 74.9358 -0 7.20617 4.9758 0.313492 -24.2645 10.8504 3.26422e-05 -26.6126 -3.99141 -20.1333 0 -18.8992 0 12.397 3.75511 0.408001 -13.7203 1.51409 -15.8773 -3.08375 -1.1782 -3.6422 -0 -0 15.2998 6.58122e-05 10.5936 26.4629 4.76429 -3.87549e-05 -77.1861 -11.9612 3.87537 -44.9049 -0 -0 30.0596 -1.40136e-06 7.22176 -5.05513 -0.639697 -2.40413e-06 -51.9507 
94.723 86.51 17.331 115.386 -84.5525 -88.5586 0 -0 0 -9.20624 0.656926 -10.1572 23.9283 -5.58923 -1.50605e-06 44.1127 18.5328 24.6563 -1.60445e-06 76.5263 -2.03431e-06 7.45345 5.07753 0.330904 -23.9693 10.9181 4.59515e-05 -26.7859 -3.47719 -19.7171 0 -19.7885 0 12.6436 3.90613 0.432909 -12.4916 1.30722 -16.0931 -3.14466 -1.41675 -3.26847 -0 -0 16.1223 0.000143956 12.0235 27.4097 5.59949 -3.17808e-05 -78.1984 -12.2753 3.87882 -45.0134 -0 -0 28.7843 9.78846e-07 6.14238 -4.30197 -0.46249 3.24157e-06 -52.5563 
93.319 86.206 17.226 116.019 -84.6873 -89.3711 0 -0 0 -9.61174 0.917591 -9.9412 24.0031 -5.70369 4.17923e-05 43.7251 18.3962 24.4232 -0 78.096 -0 7.68991 5.16335 0.347298 -23.6803 10.9691 4.59993e-05 -27.0248 -2.92411 -19.2529 0 -20.8281 0 12.82 4.06155 0.456513 -11.2486 1.12839 -16.3175 -3.1839 -1.69336 -2.8896 -0 -0 17.1022 0.000106289 13.6126 28.2921 6.5472 -4.49428e-05 -78.7046 -12.4764 3.89704 -45.0458 -0 -0 27.9134 -4.28467e-06 5.17668 -3.53204 -0.319797 -4.38347e-06 -52.7662 
91.9 85.865 17.121 116.403 -84.8508 -89.9742 0 -0 0 -9.95772 1.12416 -9.70226 24.1043 -5.82886 -4.66146e-05 43.2951 18.2779 24.1182 -1.51811e-06 79.6256 -1.82122e-06 7.90533 5.24177 0.362401 -23.4048 11.0336 6.2728e-05 -27.3166 -2.39128 -18.7433 0 -21.9628 0 12.9477 4.20357 0.477226 -10.0052 0.983195 -16.5418 -3.21247 -2.03907 -2.53941 -0 -0 18.2627 0.000147614 15.2838 29.0904 7.56776 -2.38247e-05 -78.731 -12.5661 3.911 -45.0435 -0 -0 27.5404 2.45556e-07 4.32845 -2.85494 -0.215999 2.20607e-06 -52.4636 
90.468 85.493 17.028 116.286 -85.0174 -90.1247 0 -0 0 -10.2794 1.25738 -9.43154 24.2323 -5.93363 -6.59259e-05 42.8261 18.142 23.7171 -0 81.1288 -0 8.10255 5.31253 0.376513 -23.1397 11.0663 -6.75461e-05 -27.6673 -1.82162 -18.2294 0 -23.2118 0 13.0291 4.34248 0.496087 -8.76866 0.867017 -16.7537 -3.27802 -2.53822 -2.2289 -0 -0 19.6364 -4.26818e-05 17.0021 29.8219 8.64627 1.30806e-05 -78.4618 -12.569 3.8898 -44.9944 -0 -0 27.6901 1.21059e-06 3.60641 -2.36526 -0.148999 4.38152e-07 -51.5104 
89.034 85.097 16.943 115.621 -85.195 -89.7403 0 -0 0 -10.546 1.30282 -9.1656 24.3849 -6.04782 -1.49136e-05 42.3226 18.0369 23.2688 -0 82.5562 -0 8.26307 5.38831 0.389513 -22.9073 11.1259 2.55459e-05 -28.0525 -1.31734 -17.6647 0 -24.4838 0 13.1 4.45323 0.511592 -7.56692 0.784086 -16.933 -3.35866 -3.16144 -1.99652 -0 -0 21.214 -6.87888e-05 18.5713 30.4584 9.66552 -5.01223e-05 -77.9878 -12.4821 3.83853 -44.951 -0 -0 28.3875 -9.75228e-07 2.99444 -2.11401 -0.110601 -7.04807e-07 -50.1966 
87.594 84.684 16.875 114.254 -85.3516 -88.6828 0 -0 0 -10.7815 1.25624 -8.88506 24.5562 -6.1474 3.10335e-05 41.8016 17.9292 22.7559 -2.11935e-06 83.9174 -1.90559e-06 8.38505 5.46735 0.401093 -22.7048 11.1757 3.6443e-06 -28.4799 -0.83692 -17.0742 0 -25.7859 0 13.1635 4.54593 0.524804 -6.41054 0.726061 -17.0633 -3.49775 -3.96989 -1.83481 -0 -0 23.0074 5.88889e-05 19.9228 31.0325 10.5835 -2.39817e-05 -77.537 -12.3316 3.73654 -44.8686 -0 -0 29.5772 -3.81566e-07 2.49186 -2.17527 -0.0946013 7.99047e-08 -48.0825 
86.148 84.263 16.829 112.17 -85.4916 -86.9392 0 -0 0 -10.9839 1.12132 -8.58975 24.7382 -6.23565 4.06124e-05 41.2805 17.8239 22.1945 -3.75234e-06 85.1951 -3.45021e-06 8.46061 5.55068 0.410906 -22.5413 11.2215 4.31474e-05 -28.9433 -0.406006 -16.4386 0 -27.0783 0 13.233 4.61793 0.53593 -5.31679 0.688065 -17.1284 -3.71025 -4.96306 -1.7423 -0 -0 25.0035 -0.00020698 20.9217 31.5405 11.3092 6.31629e-06 -77.2586 -12.1362 3.58301 -44.723 -0 -0 31.1687 -4.31067e-07 2.09754 -2.55778 -0.0937009 8.70094e-08 -45.3837 
